# xmcd
#
# Track frame offsets:
#	150
#	10880
#	22862
#	33910
#	45877
#	60572
#	72695
#	84882
#	96975
#	107005
#
# Disc length: 1605 seconds
#
# Revision: 1
# Processed by: cddbd v1.4PL0 Copyright (c) Steve Scherf et al.
# Submitted via: audiograbber 1.80
#
DISCID=6f06430a
DTITLE=60's country - pure country
DYEAR=1900
DGENRE=
TTITLE0=Statler Bro.- flowers on the wall
TTITLE1=Henson Cargill - skip a rope
TTITLE2=Jim Reeves - i guess i'm crazy
TTITLE3=Skeeter Davis - the end of the world
TTITLE4=Porter Wagner - the cold hard facts of life
TTITLE5=Eddy Arnold  - make the world go away
TTITLE6=Lorreta Lynn - blue kentucky girl
TTITLE7=Bobby Bare - streets of baltimore
TTITLE8=Buck Owens - i've got a tiger by the tail
TTITLE9=Dottie West - paper mansions
EXTD=
EXTT0=
EXTT1=
EXTT2=
EXTT3=
EXTT4=
EXTT5=
EXTT6=
EXTT7=
EXTT8=
EXTT9=
PLAYORDER=
